<?xml version="1.0" encoding="UTF-8" standalone="no"?>
<svg
   data-name="Layer 1"
   width="889.07556"
   height="262"
   viewBox="0 0 889.07556 262"
   version="1.1"
   id="svg41"
   xmlns="http://www.w3.org/2000/svg"
   xmlns:svg="http://www.w3.org/2000/svg"
   xmlns:rdf="http://www.w3.org/1999/02/22-rdf-syntax-ns#"
   xmlns:cc="http://creativecommons.org/ns#"
   xmlns:dc="http://purl.org/dc/elements/1.1/">
  <defs
     id="defs41" />
  <title
     id="title1">welcome_cats</title>
  <ellipse
     cx="444.53778"
     cy="200.78903"
     rx="444.53778"
     ry="12.43462"
     fill="#e6e6e6"
     id="ellipse1" />
  <polygon
     points="407.736,263.451 407.736,381.67 407.736,396.333 422.399,396.333 481.05,396.333 481.05,381.67 422.399,381.67 422.399,263.451 481.05,263.451 481.05,248.788 407.736,248.788 407.736,249.705 "
     fill="#3f3d56"
     id="polygon30"
     transform="translate(0,-197.37952)" />
  <path
     d="M 516.79053,51.408813 V 198.95324 h 73.314 V 51.408813 Z m 58.65118,132.881597 h -43.9884 V 66.071663 h 43.9884 z"
     fill="#6c63ff"
     id="path31" />
  <polygon
     points="298.681,396.333 313.344,396.333 371.995,396.333 371.995,381.67 313.344,381.67 313.344,249.705 298.681,249.705 298.681,381.67 "
     fill="#6c63ff"
     id="polygon31"
     transform="translate(0,-197.37952)" />
  <polygon
     points="192.376,263.451 192.376,314.771 192.376,329.434 192.376,381.67 192.376,396.333 207.039,396.333 265.69,396.333 265.69,381.67 207.039,381.67 207.039,329.434 265.69,329.434 265.69,314.771 207.039,314.771 207.039,263.451 265.69,263.451 265.69,248.788 192.376,248.788 192.376,249.705 "
     fill="#3f3d56"
     id="polygon32"
     transform="translate(0,-197.37952)" />
  <polygon
     points="766.058,263.451 766.058,314.771 766.058,329.434 766.058,381.67 766.058,396.333 780.721,396.333 839.372,396.333 839.372,381.67 780.721,381.67 780.721,329.434 839.372,329.434 839.372,314.771 780.721,314.771 780.721,263.451 839.372,263.451 839.372,248.788 766.058,248.788 766.058,249.705 "
     fill="#6c63ff"
     id="polygon33"
     transform="translate(0,-197.37952)" />
  <polygon
     points="104.058,332.237 64.535,371.76 64.535,249.247 49.872,249.247 49.872,395.875 64.535,395.875 64.535,392.496 104.147,352.884 142.889,391.627 142.889,396.333 157.552,396.333 157.552,249.705 142.889,249.705 142.889,370.89 104.228,332.23 104.14,332.319 "
     fill="#3f3d56"
     id="polygon34"
     transform="translate(0,-197.37952)" />
  <polygon
     points="639.133,249.247 624.47,249.247 624.47,395.875 639.133,395.875 639.133,274.689 677.794,313.35 677.883,313.261 677.964,313.342 717.488,273.819 717.488,396.333 732.15,396.333 732.15,249.705 717.488,249.705 717.488,253.083 677.876,292.695 639.133,253.953 "
     fill="#3f3d56"
     id="polygon35"
     transform="translate(0,-197.37952)" />
  <circle
     cx="335.07556"
     cy="19"
     r="9"
     fill="#6c63ff"
     id="circle35" />
  <circle
     cx="113.07556"
     cy="53"
     r="9"
     fill="#6c63ff"
     id="circle36" />
  <circle
     cx="291.07556"
     cy="253"
     r="9"
     fill="#6c63ff"
     id="circle37" />
  <circle
     cx="517.07556"
     cy="26"
     r="9"
     fill="#6c63ff"
     id="circle38" />
  <circle
     cx="782.07556"
     cy="245"
     r="9"
     fill="#6c63ff"
     id="circle39" />
  <circle
     cx="791.07556"
     cy="9"
     r="9"
     fill="#6c63ff"
     id="circle40" />
  <circle
     cx="677.07556"
     cy="171"
     r="9"
     fill="#6c63ff"
     id="circle41" />
  <metadata
     id="metadata41">
    <rdf:RDF>
      <cc:Work
         rdf:about="">
        <dc:title>welcome_cats</dc:title>
      </cc:Work>
    </rdf:RDF>
  </metadata>
</svg>
